<svg class="ldi-625m18" width="102px"  height="102px"  xmlns="http://www.w3.org/2000/svg" xmlns:xlink="http://www.w3.org/1999/xlink" viewBox="0 0 100 100" preserveAspectRatio="xMidYMid" style="background: none;"><!--?xml version="1.0" encoding="utf-8"?--><!--Generator: Adobe Illustrator 21.0.0, SVG Export Plug-In . SVG Version: 6.00 Build 0)--><svg version="1.1" id="圖層_1" xmlns="http://www.w3.org/2000/svg" xmlns:xlink="http://www.w3.org/1999/xlink" x="0px" y="0px" viewBox="0 0 100 100" style="transform-origin: 50px 50px 0px;" xml:space="preserve"><g style="transform-origin: 50px 50px 0px;"><g style="transform-origin: 50px 50px 0px; transform: scale(0.6);"><g style="transform-origin: 50px 50px 0px;"><g><style type="text/css" class="ld ld-breath" style="transform-origin: 50px 50px 0px; animation-duration: 1s; animation-delay: -1s; animation-direction: normal;">.st0{fill:#D1D1D1;} .st1{fill:#454545;} .st2{fill:#464646;} .st3{fill:#FFFFFF;}</style><g class="ld ld-breath" style="transform-origin: 50px 50px 0px; animation-duration: 1s; animation-delay: -0.916667s; animation-direction: normal;"><path class="st0" d="M86.251,69.912c1.732-0.321,3.105-0.982,4.157-1.995c1.388-1.336,2.092-3.181,2.092-5.485 c0-3.099-1.879-5.358-3.291-6.788c-0.709-0.717-1.659-1.094-2.621-1.094c-0.024,0-0.049,0-0.073,0.001 c1.767-0.852,3.286-2.038,4.022-3.581c0.83-1.739,0.6-3.674-0.614-5.174c-0.516-0.639-1.1-1.033-1.911-1.291 c2.218-2.139,2.21-5.432,2.204-8.134l-0.001-0.486c0-0.67-0.144-6.722-5.288-12.775c-6.59-7.755-17.935-11.692-33.722-11.7h-0.052 c-15.763,0-27.095,3.935-33.681,11.695c-5.137,6.054-5.286,12.108-5.286,12.779v0.07c0,2.893,0,7.013,2.963,9.116 c-1.11,0.311-1.46,0.565-1.73,0.761c-2.273,1.65-2.122,3.671-1.952,4.462c0.403,1.874,1.764,2.728,3.206,3.21 c-0.048-0.002-0.096-0.003-0.143-0.003c-0.888,0-1.763,0.321-2.448,0.93C9.816,56.441,7.5,58.965,7.5,62.431 c0,1.835,0.761,6.129,7.503,8.01c-0.942,0.388-1.792,1.04-2.315,2.139c-1.555,3.264-1.274,6.995,0.772,10.237 c2.18,3.453,5.932,5.774,9.337,5.774h57.091c2.984,0,6.048-1.692,8.198-4.525c2.405-3.171,3.183-7.141,2.134-10.893 C89.712,71.352,88.231,70.447,86.251,69.912z" fill="rgb(209, 209, 209)" style="fill: rgb(209, 209, 209);"></path></g><g class="ld ld-breath" style="transform-origin: 50px 50px 0px; animation-duration: 1s; animation-delay: -0.833333s; animation-direction: normal;"><path class="st2" d="M50.401,73.649c19.389-2.477,35.867-0.926,36.272,0.518c1.591,5.689-3.052,10.74-6.783,10.74H22.797 c-3.731,0-9.325-5.408-6.783-10.74C16.944,72.216,33.723,75.779,50.401,73.649z M15.584,48.812c-2.541,1.844,4.97,1.091,6.783,3.714 c1.706,2.468,3.718,6.165,4.834,5.138c1.696-1.561,5.935-5.863,21.951-4.997c2.462,0.133,30.307-0.141,30.307-0.141 c3.731,0,9.189-2.446,7.597-4.413c-0.405-0.5-6.407-0.623-37.149-1.792C33.195,45.686,16.514,48.138,15.584,48.812z M85.08,42.15 c-0.736-0.054-1.586-0.099-2.591-0.151c-3.473-0.18-9.21-0.394-18.715-0.749c-3.915-0.146-8.461-0.316-13.736-0.516 c-1.86-0.071-3.8-0.106-5.766-0.106c-8.627,0-16.166,0.685-19.892,1.093c-2.632,0.289-4.593,0.555-6.067,0.797 c-2.456-0.653-2.438-3.386-2.438-6.634c0,0,0-20.808,35.331-20.789c35.339,0.02,35.326,20.789,35.326,20.789 C86.53,38.699,86.634,41.127,85.08,42.15z M29.012,36.135c0-0.624-0.928-1.131-2.073-1.131s-2.073,0.506-2.073,1.131 c0,0.624,0.928,1.131,2.073,1.131C28.084,37.265,29.012,36.759,29.012,36.135z M36.151,29.634c0-0.624-0.928-1.131-2.073-1.131 s-2.073,0.506-2.073,1.131s0.928,1.131,2.073,1.131S36.151,30.259,36.151,29.634z M41.239,33.403c0-0.624-0.928-1.131-2.073-1.131 s-2.073,0.506-2.073,1.131c0,0.624,0.928,1.131,2.073,1.131C40.31,34.533,41.239,34.027,41.239,33.403z M48.698,20.307 c0-0.624-0.514-1.131-1.147-1.131c-0.633,0-1.147,0.506-1.147,1.131s0.514,1.131,1.147,1.131S48.698,20.932,48.698,20.307z M55.348,28.504c0-0.624-0.928-1.131-2.072-1.131c-1.145,0-2.073,0.506-2.073,1.131c0,0.624,0.928,1.131,2.073,1.131 C54.42,29.634,55.348,29.128,55.348,28.504z M66.016,23.699c0-0.78-0.971-1.413-2.167-1.413c-1.196,0-2.167,0.633-2.167,1.413 c0,0.78,0.971,1.413,2.167,1.413C65.045,25.112,66.016,24.479,66.016,23.699z M71.669,32.743c0-0.624-0.928-1.131-2.072-1.131 c-1.145,0-2.073,0.506-2.073,1.131c0,0.624,0.928,1.131,2.073,1.131C70.74,33.874,71.669,33.368,71.669,32.743z M86.588,58.235 c-2.319,1.165-5.138,1.725-7.129,1.725c-0.147,0.002-18.102,0.177-26.351,0.177c-0.001,0-0.001,0-0.001,0 c-3.022,0-3.808-0.023-4.138-0.041c-1.339-0.072-2.64-0.109-3.864-0.109c-11.06,0-14.161,2.872-15.486,4.097l-0.13,0.12 c-0.749,0.689-1.714,1.069-2.717,1.069c-2.741,0-4.373-2.495-6.262-5.383c-0.289-0.441-0.574-0.879-0.853-1.285 c-0.51-0.349-2.134-0.685-2.929-0.85c-0.708-0.146-1.478-0.308-2.2-0.572c-1.971,1.751-3.344,3.378-3.344,5.248 c0,2.593,2.701,4.05,5.847,4.714c16.001,3.384,45.738-3.129,63.493-0.899c7.16,0.899,8.29-1.222,8.29-3.815 C88.815,60.941,87.941,59.604,86.588,58.235z" fill="rgb(70, 70, 70)" style="fill: rgb(70, 70, 70);"></path></g><metadata xmlns:d="https://loading.io/stock/" class="ld ld-breath" style="transform-origin: 50px 50px 0px; animation-duration: 1s; animation-delay: -0.75s; animation-direction: normal;">
<d:name class="ld ld-breath" style="transform-origin: 50px 50px 0px; animation-duration: 1s; animation-delay: -0.666667s; animation-direction: normal;">burger</d:name>
<d:tags class="ld ld-breath" style="transform-origin: 50px 50px 0px; animation-duration: 1s; animation-delay: -0.583333s; animation-direction: normal;">fastfood,eat,dinner,lunch,hungry,fat,burger,map</d:tags>
<d:license class="ld ld-breath" style="transform-origin: 50px 50px 0px; animation-duration: 1s; animation-delay: -0.5s; animation-direction: normal;">cc0</d:license>
<d:slug class="ld ld-breath" style="transform-origin: 50px 50px 0px; animation-duration: 1s; animation-delay: -0.416667s; animation-direction: normal;">625m18</d:slug>
</metadata></g></g></g></g><style type="text/css" class="ld ld-breath" style="transform-origin: 50px 50px 0px; animation-duration: 1s; animation-delay: -0.333333s; animation-direction: normal;">@keyframes ld-breath {
  0% {
    -webkit-transform: scale(0.86);
    transform: scale(0.86);
  }
  50% {
    -webkit-transform: scale(1.06);
    transform: scale(1.06);
  }
  100% {
    -webkit-transform: scale(0.86);
    transform: scale(0.86);
  }
}
@-webkit-keyframes ld-breath {
  0% {
    -webkit-transform: scale(0.86);
    transform: scale(0.86);
  }
  50% {
    -webkit-transform: scale(1.06);
    transform: scale(1.06);
  }
  100% {
    -webkit-transform: scale(0.86);
    transform: scale(0.86);
  }
}
.ld.ld-breath {
  -webkit-animation: ld-breath 1s infinite;
  animation: ld-breath 1s infinite;
}
</style></svg></svg>