<svg class="ldi-egzhii" width="100px"  height="100px"  xmlns="http://www.w3.org/2000/svg" xmlns:xlink="http://www.w3.org/1999/xlink" viewBox="0 0 100 100" preserveAspectRatio="xMidYMid" style="background: none;"><!--?xml version="1.0" encoding="utf-8"?--><!--Generator: Adobe Illustrator 21.0.0, SVG Export Plug-In . SVG Version: 6.00 Build 0)--><svg version="1.1" id="圖層_1" xmlns="http://www.w3.org/2000/svg" xmlns:xlink="http://www.w3.org/1999/xlink" x="0px" y="0px" viewBox="0 0 100 100" style="transform-origin: 50px 50px 0px;" xml:space="preserve"><g style="transform-origin: 50px 50px 0px;"><g style="transform-origin: 50px 50px 0px; transform: scale(0.6);"><g style="transform-origin: 50px 50px 0px;"><g><style type="text/css" style="transform-origin: 50px 50px 0px; animation-duration: 1s; animation-delay: -1s; animation-direction: normal;" class="ld ld-breath">.st0,.st1{stroke-width:3.5;stroke-linejoin:round;stroke-miterlimit:10}.st0{fill:#abbd80;stroke:#333}.st1{opacity:.2;stroke:#000}.st2,.st3{stroke:#333}.st2{stroke-width:3.5;stroke-linecap:round;stroke-linejoin:round;stroke-miterlimit:10;fill:none}.st3{fill:#f3e5c7}.st3,.st4,.st5{stroke-width:3.5;stroke-linejoin:round;stroke-miterlimit:10}.st4{fill:#67503b;stroke:#333}.st5{stroke:#fff;stroke-linecap:round}.st6{fill:#333}.st10,.st7,.st8,.st9{fill:#e0e0e0;stroke:#333;stroke-width:3.5;stroke-miterlimit:10}.st10,.st8,.st9{fill:#cccbca}.st10,.st9{fill:#e6e6e5}.st10{fill:#a0c7d6}.st11{fill:#e0e0e0}.st12,.st13,.st14,.st15,.st16{fill:#f3e5c7;stroke:#333;stroke-width:3.5;stroke-miterlimit:10}.st13,.st14,.st15,.st16{fill:#9dc3d1}.st14,.st15,.st16{fill:#77a4bd}.st15,.st16{fill:#b2b3b3}.st16{fill:none;stroke:#fff;stroke-width:4;stroke-linecap:round}.st17{fill:#fff}.st18,.st19,.st20{stroke-width:3.5;stroke-miterlimit:10}.st18{opacity:.2;stroke:#000}.st19,.st20{fill:#dfdfdf;stroke:#333}.st20{fill:#f6b16a}.st21{fill:#f3e5c7}.st22{fill:#f37e5f;stroke:#333;stroke-width:3.5;stroke-miterlimit:10}.st23{fill:#fff;stroke:#333}.st23,.st24,.st25{stroke-width:3.5;stroke-miterlimit:10}.st24{stroke-linecap:round;fill:none;stroke:#fff}.st25{fill:#66503a;stroke:#333}.st26,.st27,.st28,.st29,.st30{fill:none;stroke:#76a3bc;stroke-width:3.7112;stroke-linecap:round;stroke-miterlimit:10}.st27,.st28,.st29,.st30{stroke:#e15c64}.st28,.st29,.st30{stroke:#839a86}.st29,.st30{stroke:#f7b16a}.st30{stroke:#fff;stroke-width:3.5;stroke-linejoin:round}.st31{fill:#fefefe}.st32{fill:#323232}.st33{fill:#c33636;stroke:#333;stroke-width:3.5;stroke-miterlimit:10}.st34{opacity:.2}.st35,.st36,.st37{stroke-width:3.5;stroke-miterlimit:10}.st35{stroke-linecap:round;fill:#c33636;stroke:#fff}.st36,.st37{fill:#abbc80;stroke:#333}.st37{fill:#f7b16a}.st38{fill:#4a3826}.st39{fill:#f7b16a}.st40{fill:#e15b64}.st41{fill:#abbd81}.st42{fill:#ffdc6c}.st43{fill:#e15b64}.st43,.st44,.st45,.st46{stroke:#333;stroke-width:3.5;stroke-miterlimit:10}.st44{stroke-linejoin:round;fill:#abbd81}.st45,.st46{fill:#ffdc6c}.st46{fill:none;stroke-linecap:round}.st47{fill:#9dc3d1}.st48{fill:#769fb6}.st49,.st50,.st51{fill:#e2d5b9;stroke:#333;stroke-width:3.5;stroke-miterlimit:10}.st50,.st51{fill:#e15c64}.st51{fill:#f5e6c8}.st52{fill:#cccbca}.st53{fill:#e6e6e5}.st54{fill:#a0c7d6}.st55{fill:#666}.st56,.st57{fill:none;stroke-width:3.5;stroke-miterlimit:10}.st56{stroke-linecap:round;stroke:#666}.st57{stroke:#333}.st58{opacity:.2;fill:#fff}.st59{fill:#e0e0e0;stroke:#333;stroke-width:3.5;stroke-linejoin:round;stroke-miterlimit:10}.st60{fill:#abbd80}.st61{fill:#839a86}.st62{fill:#67503b}.st63,.st64,.st65{stroke-linecap:round}.st63{fill:#abbd80;stroke:#fff;stroke-width:2;stroke-miterlimit:10}.st64,.st65{stroke-linejoin:round}.st64{stroke:#333;stroke-width:3.5;stroke-miterlimit:10;fill:#abbd80}.st65{fill:#67503b}.st65,.st66,.st67,.st68{stroke:#333;stroke-width:3.5;stroke-miterlimit:10}.st66{stroke-linecap:round;stroke-linejoin:round;fill:#e0e0e0}.st67,.st68{fill:#abbd80}.st68{fill:#67503b}.st69{opacity:.3;fill:#fff}.st70,.st71{fill:none;stroke:#fff;stroke-width:3;stroke-linecap:round;stroke-miterlimit:10}.st71{fill:#f3e5c7;stroke-width:2}.st72{fill:#f8b26a}.st73{fill:#f7b16a;stroke:#333;stroke-width:3.5;stroke-linejoin:round;stroke-miterlimit:10}.st74{fill:#f4e069}.st75{fill:#e15c64}.st76,.st77{fill:#f4e069;stroke:#333;stroke-width:3.5;stroke-linejoin:round;stroke-miterlimit:10}.st77{fill:#e15c64}.st78{fill:#e15c65}.st79{fill:none;stroke:#f4e069;stroke-width:3.8671;stroke-linecap:round;stroke-miterlimit:10}.st80{fill:#e15c65;stroke:#333;stroke-width:3.5}.st80,.st81,.st82{stroke-miterlimit:10}.st81{fill:#e0e0e0;stroke-linecap:round;stroke:#fff;stroke-width:3.1169}.st82{stroke:#333;stroke-width:3.5}.st82,.st83{fill:#8c6339}.st84{fill:#a0c8d7;stroke:#333;stroke-width:3.5;stroke-miterlimit:10}.st85{fill:#76a3bc}.st86{fill:#f5e169}.st87,.st88,.st89{stroke-miterlimit:10}.st87{fill:#e0e0e0;stroke-linecap:round;stroke:#fff;stroke-width:1.7347}.st88,.st89{stroke:#000;stroke-width:3.5;stroke-linejoin:round}.st89{stroke:#333}.st89,.st90{fill:#f37e5f}.st91{fill:#e0c3c4}</style><g style="transform-origin: 50px 50px 0px; animation-duration: 1s; animation-delay: -0.958333s; animation-direction: normal;" class="ld ld-breath"><path class="st25" d="M82,65.4H20.1c-1.4,0-2.6-1.1-2.6-2.6v-7.4c0-1.4,1.1-2.6,2.6-2.6H82c1.4,0,2.6,1.1,2.6,2.6v7.4 C84.6,64.2,83.4,65.4,82,65.4z" fill="rgb(102, 80, 58)" stroke="rgb(51, 51, 51)" style="fill: rgb(102, 80, 58); stroke: rgb(51, 51, 51);"></path></g><g style="transform-origin: 50px 50px 0px; animation-duration: 1s; animation-delay: -0.916667s; animation-direction: normal;" class="ld ld-breath"><path class="st37" d="M61.8,17.2H40.3c-13.5,0-24.4,10.9-24.4,24.4v0c0,1.5,1.2,2.6,2.6,2.6h65c1.5,0,2.6-1.2,2.6-2.6v0 C86.1,28.1,75.2,17.2,61.8,17.2z" stroke="rgb(51, 51, 51)" fill="rgb(247, 177, 106)" style="stroke: rgb(51, 51, 51); fill: rgb(247, 177, 106);"></path></g><g style="transform-origin: 50px 50px 0px; animation-duration: 1s; animation-delay: -0.875s; animation-direction: normal;" class="ld ld-breath"><path class="st37" d="M74.5,82.8h-47c-5.5,0-10-4.5-10-10v-0.3c0-0.9,0.7-1.6,1.6-1.6H83c0.9,0,1.6,0.7,1.6,1.6v0.3 C84.6,78.3,80.1,82.8,74.5,82.8z" stroke="rgb(51, 51, 51)" fill="rgb(247, 177, 106)" style="stroke: rgb(51, 51, 51); fill: rgb(247, 177, 106);"></path></g><g style="transform-origin: 50px 50px 0px; animation-duration: 1s; animation-delay: -0.833333s; animation-direction: normal;" class="ld ld-breath"><path class="st21" d="M41.1,33.8c-0.6-1.5,0.1-3.2,0.8-3.5c0.6-0.3,2.4,0.4,3,1.8c0.6,1.5,0.3,3-0.8,3.5 C43.1,36,41.7,35.2,41.1,33.8z" fill="rgb(243, 229, 199)" style="fill: rgb(243, 229, 199);"></path></g><g style="transform-origin: 50px 50px 0px; animation-duration: 1s; animation-delay: -0.791667s; animation-direction: normal;" class="ld ld-breath"><path class="st21" d="M50.8,38.1c-0.6-1.5,0.1-3.2,0.8-3.5c0.6-0.3,2.4,0.4,3,1.8c0.6,1.5,0.3,3-0.8,3.5 C52.8,40.4,51.4,39.5,50.8,38.1z" fill="rgb(243, 229, 199)" style="fill: rgb(243, 229, 199);"></path></g><g style="transform-origin: 50px 50px 0px; animation-duration: 1s; animation-delay: -0.75s; animation-direction: normal;" class="ld ld-breath"><path class="st21" d="M62.2,30.5c-0.8,1.3-2.6,1.6-3.1,1.3c-0.6-0.3-1-2.1-0.2-3.4c0.8-1.3,2.2-1.9,3.1-1.3 C63,27.7,63.1,29.2,62.2,30.5z" fill="rgb(243, 229, 199)" style="fill: rgb(243, 229, 199);"></path></g><g style="transform-origin: 50px 50px 0px; animation-duration: 1s; animation-delay: -0.708333s; animation-direction: normal;" class="ld ld-breath"><path class="st21" d="M71.6,24.3c1.4,0.8,1.9,2.6,1.5,3.2c-0.3,0.6-2.2,1.2-3.6,0.4s-2.1-2.2-1.5-3.2C68.6,23.7,70.2,23.5,71.6,24.3 z" fill="rgb(243, 229, 199)" style="fill: rgb(243, 229, 199);"></path></g><g style="transform-origin: 50px 50px 0px; animation-duration: 1s; animation-delay: -0.666667s; animation-direction: normal;" class="ld ld-breath"><path class="st21" d="M25.5,36.1c1.3,1.1,1.5,3.1,1,3.6c-0.5,0.6-2.5,0.9-3.8-0.2c-1.3-1.1-1.8-2.7-1-3.6 C22.5,34.9,24.2,35,25.5,36.1z" fill="rgb(243, 229, 199)" style="fill: rgb(243, 229, 199);"></path></g><g style="transform-origin: 50px 50px 0px; animation-duration: 1s; animation-delay: -0.625s; animation-direction: normal;" class="ld ld-breath"><path class="st21" d="M33,27.8c0.4,1.6-0.6,3.2-1.2,3.4c-0.7,0.2-2.4-0.7-2.8-2.3c-0.4-1.6,0.1-3.1,1.2-3.4S32.5,26.2,33,27.8z" fill="rgb(243, 229, 199)" style="fill: rgb(243, 229, 199);"></path></g><g style="transform-origin: 50px 50px 0px; animation-duration: 1s; animation-delay: -0.583333s; animation-direction: normal;" class="ld ld-breath"><path class="st21" d="M44.2,24.3c-0.5,1.5-2.3,2.3-2.9,2.1c-0.7-0.2-1.5-1.9-1-3.4s1.8-2.4,2.9-2.1C44.3,21.2,44.8,22.7,44.2,24.3z" fill="rgb(243, 229, 199)" style="fill: rgb(243, 229, 199);"></path></g><g style="transform-origin: 50px 50px 0px; animation-duration: 1s; animation-delay: -0.541667s; animation-direction: normal;" class="ld ld-breath"><path class="st21" d="M76.8,39c-1.5-0.3-2.4-1.8-2.3-2.4s1.6-1.7,3-1.4s2.5,1.4,2.3,2.4C79.7,38.7,78.3,39.3,76.8,39z" fill="rgb(243, 229, 199)" style="fill: rgb(243, 229, 199);"></path></g><g style="transform-origin: 50px 50px 0px; animation-duration: 1s; animation-delay: -0.5s; animation-direction: normal;" class="ld ld-breath"><rect x="20.2" y="44.2" class="st43" width="61.6" height="7.9" stroke="rgb(51, 51, 51)" fill="rgb(225, 91, 100)" style="stroke: rgb(51, 51, 51); fill: rgb(225, 91, 100);"></rect></g><g style="transform-origin: 50px 50px 0px; animation-duration: 1s; animation-delay: -0.458333s; animation-direction: normal;" class="ld ld-breath"><path class="st44" d="M86.5,66.1c-0.9-0.5-2-0.7-3.4-0.7c-1,0-2,0-3.1,0c-1.6,0-3.2,0-4.7,0c-2,0-4,0-6,0c-2.3,0-4.6,0-7,0 c-2.5,0-5,0-7.5,0c-2.6,0-5.2,0-7.7,0c-2.5,0-5,0-7.5,0c-2.3,0-4.7,0-7,0c-2,0-4.1,0-6.1,0c-1.6,0-3.2,0-4.8,0c-1.1,0-2.1,0-3.2,0 c-0.4,0-0.8,0-1.1,0c-0.9,0-1.8,0.1-2.7,0.4c-1.1,0.4-2.1,1.6-2.7,2.6c-0.8,1.5-1.6,4.9,0.2,5.5c2.2,0.8,4.8-3.1,7-1.1 c0.7,0.6,0.8,1.7,1.5,2.4c1.3,1.2,3.4,0,4.6-1.2c1.2-1.3,2.7-2.9,4.4-2.5c2.3,0.6,2.8,4.4,5.1,4.7c1.6,0.2,2.7-1.4,3.7-2.7 s2.5-2.6,3.9-1.9c0.9,0.5,1.3,1.6,1.7,2.6c0.9,1.6,2.9,2.9,4.5,2.1c1.8-0.8,2.5-3.6,4.5-3.7c2.6-0.2,3.7,4.1,6.3,3.9 c2.4-0.2,2.8-4,5.1-4.7c1.6-0.5,3.2,0.9,4.3,2.1c1.2,1.2,2.9,2.5,4.4,1.8c1.9-0.9,1.9-4.1,4-4.5c1.5-0.3,2.7,1.1,3.6,2.3 s2.6,2.4,3.9,1.4c0.9-0.7,1.2-1.7,2.1-2.3c1.5-1,2.3,0.3,2.4-2.4C89,68.4,87.9,66.9,86.5,66.1z" stroke="rgb(51, 51, 51)" fill="rgb(171, 189, 129)" style="stroke: rgb(51, 51, 51); fill: rgb(171, 189, 129);"></path></g><g style="transform-origin: 50px 50px 0px; animation-duration: 1s; animation-delay: -0.416667s; animation-direction: normal;" class="ld ld-breath"><path class="st45" d="M85.8,55.3l-32.4,13c-1.6,0.6-3.3,0.6-4.9,0l-32.4-13c-0.6-0.2-1.1-0.9-1.1-1.5l0,0c0-0.9,0.7-1.6,1.6-1.6 h68.4c0.9,0,1.6,0.7,1.6,1.6l0,0C86.9,54.4,86.4,55,85.8,55.3z" stroke="rgb(51, 51, 51)" fill="rgb(255, 220, 108)" style="stroke: rgb(51, 51, 51); fill: rgb(255, 220, 108);"></path></g><metadata xmlns:d="https://loading.io/stock/" style="transform-origin: 50px 50px 0px; animation-duration: 1s; animation-delay: -0.375s; animation-direction: normal;" class="ld ld-breath">
<d:name style="transform-origin: 50px 50px 0px; animation-duration: 1s; animation-delay: -0.333333s; animation-direction: normal;" class="ld ld-breath">hamburger</d:name>
<d:tags style="transform-origin: 50px 50px 0px; animation-duration: 1s; animation-delay: -0.291667s; animation-direction: normal;" class="ld ld-breath">hamburger,sandwich,cheeseburger</d:tags>
<d:license style="transform-origin: 50px 50px 0px; animation-duration: 1s; animation-delay: -0.25s; animation-direction: normal;" class="ld ld-breath">cc-by</d:license>
<d:slug style="transform-origin: 50px 50px 0px; animation-duration: 1s; animation-delay: -0.208333s; animation-direction: normal;" class="ld ld-breath">egzhii</d:slug>
</metadata></g></g></g></g><style type="text/css" style="transform-origin: 50px 50px 0px; animation-duration: 1s; animation-delay: -0.166667s; animation-direction: normal;" class="ld ld-breath">@keyframes ld-breath {
  0% {
    -webkit-transform: scale(0.86);
    transform: scale(0.86);
  }
  50% {
    -webkit-transform: scale(1.06);
    transform: scale(1.06);
  }
  100% {
    -webkit-transform: scale(0.86);
    transform: scale(0.86);
  }
}
@-webkit-keyframes ld-breath {
  0% {
    -webkit-transform: scale(0.86);
    transform: scale(0.86);
  }
  50% {
    -webkit-transform: scale(1.06);
    transform: scale(1.06);
  }
  100% {
    -webkit-transform: scale(0.86);
    transform: scale(0.86);
  }
}
.ld.ld-breath {
  -webkit-animation: ld-breath 1s infinite;
  animation: ld-breath 1s infinite;
}
</style></svg></svg>